<?xml version="1.0" standalone="no"?>
<!DOCTYPE svg PUBLIC "-//W3C//DTD SVG 20010904//EN"
 "http://www.w3.org/TR/2001/REC-SVG-20010904/DTD/svg10.dtd">
<svg version="1.0" xmlns="http://www.w3.org/2000/svg"
 width="479.000000pt" height="479.000000pt" viewBox="0 0 479.000000 479.000000"
 preserveAspectRatio="xMidYMid meet">
<metadata>
Created by potrace 1.14, written by Peter Selinger 2001-2017
</metadata>
<g transform="translate(0.000000,479.000000) scale(0.100000,-0.100000)"
fill="#000000" stroke="none">
<path d="M2219 4786 c-2 -2 -35 -6 -74 -10 -38 -3 -81 -8 -95 -11 -13 -2 -42
-7 -65 -11 -205 -29 -493 -129 -714 -245 -103 -54 -264 -156 -269 -170 -2 -5
-10 -9 -17 -9 -7 0 -15 -3 -17 -7 -1 -5 -28 -27 -58 -50 -108 -82 -232 -203
-365 -356 -6 -7 -35 -46 -66 -87 -258 -349 -409 -729 -463 -1165 -13 -107 -15
-456 -2 -535 3 -19 8 -55 11 -80 7 -58 43 -238 54 -270 5 -14 17 -52 26 -85
47 -161 155 -401 242 -538 24 -37 43 -70 43 -73 0 -6 48 -72 68 -92 6 -7 12
-16 12 -20 0 -4 10 -19 23 -34 12 -14 38 -46 57 -69 80 -99 201 -220 315 -317
108 -91 287 -210 445 -293 207 -109 491 -197 780 -240 94 -14 455 -20 535 -8
33 4 83 11 110 14 228 28 523 121 750 238 146 75 345 206 447 295 69 60 182
166 190 178 4 6 28 32 53 57 25 25 45 51 45 57 0 5 4 10 8 10 11 0 128 156
181 240 22 36 44 70 49 75 10 13 139 274 148 300 4 11 8 22 9 25 1 3 6 16 12
30 31 76 87 253 99 313 2 10 5 26 8 35 3 9 8 33 11 52 5 33 14 85 21 122 19
111 26 466 11 599 -43 380 -181 761 -388 1069 -82 122 -141 200 -151 200 -4 0
-8 5 -8 10 0 6 -12 23 -27 38 -16 16 -51 53 -79 83 -229 243 -530 445 -855
573 -163 63 -399 126 -534 142 -33 3 -69 8 -80 11 -23 6 -431 14 -436 9z"/>
</g>
</svg>
